<svg xmlns="http://www.w3.org/2000/svg"><defs><font horiz-adv-x="756"><font-face ascent="800" descent="-200"/><glyph unicode="ﬁ" horiz-adv-x="503" d="M29 406v54h72v75q0 81 47.5 143t136.5 62q87 0 151-47l-31-49q-40 36-116 36-59 0-89.5-43t-30.5-100v-77h261v-460h-68v406h-193v-406h-68v406h-72z"/><glyph unicode="ﬂ" horiz-adv-x="580" d="M29 406v54h72v80q0 91 46 145.5t135 54.5q85 0 131-43t46-113v-467q0-24 14.5-43t40.5-19q7 0 15.5 1t16 3 13.5 3.5l10 2.5 4 1 14-56q-1-1-14.5-5t-36.5-7.5-44-3.5q-46 0-73.5 27t-27.5 67v483q0 44-26.5 76.5t-82.5 32.5-84.5-45.5-28.5-107.5v-67h110v-54h-110v-406h-68v406h-72z"/><glyph unicode="ﬃ" horiz-adv-x="733" d="M29 406v54h72v44q0 82 41 139.5t117 57.5q63 0 113-26 51 65 143 65 80 0 152-47l-32-49q-40 36-115 36-60 0-90-42.5t-30-100.5v-77h260v-460h-68v406h-192v-406h-68v406h-163v-406h-68v406h-72zm140 54h163v69q0 56 19 93-28 20-81 20-52 0-76.5-42.5t-24.5-93.5v-46z"/><glyph unicode="ﬄ" horiz-adv-x="813" d="M29 406v54h72v51q0 84 43.5 137t120.5 53q57 0 107-26 48 65 143 65 85 0 131-43t46-113v-467q0-24 14.5-43t40.5-19q7 0 16 1t16.5 3 13.5 3.5l10 2.5 4 1 13-56q-1-1-14.5-5t-36.5-7.5-43-3.5q-47 0-74.5 27t-27.5 67v483q0 44-26 76.5t-82 32.5q-57 0-85-45t-28-108v-67h109v-54h-109v-406h-68v406h-166v-406h-68v406h-72zm140 54h166v69q0 63 15 94-26 19-73 19-53 0-80.5-38t-27.5-91v-53z"/><glyph horiz-adv-x="0"/><glyph horiz-adv-x="333"/><glyph horiz-adv-x="0"/><glyph horiz-adv-x="0"/><glyph horiz-adv-x="0"/><glyph horiz-adv-x="256"/><glyph horiz-adv-x="256"/><glyph horiz-adv-x="256"/><glyph unicode="!" horiz-adv-x="243" d="M88 0v112h68v-112h-68zm0 228v489h68v-489h-68z"/><glyph unicode=""" horiz-adv-x="280" d="M62 589v127h60v-127h-60zm96 0v127h59v-127h-59z"/><glyph unicode="#" horiz-adv-x="684" d="M40 207v54h125l48 196h-131v51h144l48 202h58l-50-202h189l49 202h58l-50-202h117v-51h-130l-47-196h134v-54h-147l-50-207h-58l51 207h-189l-50-207h-58l52 207h-113zm182 54h189l48 196h-190z"/><glyph unicode="$" horiz-adv-x="617" d="M37 97l34 57q37-39 96.5-66t128.5-31v267q-127 29-180 67.5t-53 119.5q0 92 62 145t167 58v101h37v-100q123-4 213-82l-33-56q-65 71-184 76v-267q128-25 190-67.5t62-132.5q0-93-67.5-141.5t-180.5-50.5v-97h-37v98q-148 9-255 102zm97 424q0-54 36.5-80.5t125.5-47.5v259q-162-7-162-131zm191-465q85 0 132 31t47 92q0 56-42 85.5t-137 52.5v-261z"/><glyph unicode="%" horiz-adv-x="724" d="M45 576q0 60 43.5 102t105.5 42 106-42 44-102q0-59-44-101t-106-42-105.5 42-43.5 101zm24-549l280 340 271 347 35-30-278-340-273-348zm27 549q0-43 29-73.5t69-30.5q41 0 70 31t29 73q0 43-29.5 73.5t-69.5 30.5-69-31-29-73zm285-442q0 59 43.5 101t105.5 42 105.5-42 43.5-101q0-60-43.5-102t-105.5-42-105.5 42-43.5 102zm51 0q0-43 28.5-73.5t69.5-30.5 69.5 31 28.5 73-29.5 73-68.5 31q-41 0-69.5-31t-28.5-73z"/><glyph unicode="&" horiz-adv-x="672" d="M48 183q0 65 39 113t111 98q-54 58-75.5 95t-21.5 74q0 66 51 111t127 45q71 0 118.5-39.5t47.5-100.5q0-56-39.5-99t-115.5-92l199-208q43 81 43 176h58q-1-122-61-218l133-138h-90l-82 86q-90-96-216-96-95 0-160.5 54t-65.5 139zm66-2q0-63 50-99.5t117-36.5q100 0 171 81l-215 227q-60-42-91.5-82t-31.5-90zm50 384q0-25 17.5-53.5t68.5-82.5q71 48 101.5 78.5t30.5 69.5-29.5 64-73.5 25q-49 0-82-29.5t-33-71.5z"/><glyph unicode="'" horiz-adv-x="170" d="M55 604v112h60v-112h-60z"/><glyph unicode="(" horiz-adv-x="268" d="M44 346q0 94 36.5 187.5t103.5 205.5l52-25q-48-71-88-177t-40-194q0-160 127-353l-51-27q-140 208-140 383z"/><glyph unicode=")" horiz-adv-x="268" d="M32 714l52 25q67-112 103.5-205.5t36.5-187.5q0-175-140-383l-51 27q127 193 127 353 0 88-40 193.5t-88 177.5z"/><glyph unicode="*" horiz-adv-x="323" d="M62 630l11 36 69-26-3 73h44l-3-73 69 26 11-36-68-22 44-62-32-22-43 65-43-65-30 22 43 62z"/><glyph unicode="+" horiz-adv-x="418" d="M53 327v56h125v135h62v-135h125v-56h-125v-135h-62v135h-125z"/><glyph unicode="," horiz-adv-x="205" d="M55-15q21 0 21 21v92h58v-102q0-32-23.5-47.5t-55.5-15.5v52z"/><glyph unicode="-" horiz-adv-x="423" d="M66 241v63h291v-63h-291z"/><glyph unicode="." horiz-adv-x="189" d="M66 0v98h58v-98h-58z"/><glyph unicode="/" horiz-adv-x="606" d="M29 0l472 710h78l-473-710h-77z"/><glyph unicode="0" horiz-adv-x="615" d="M57 293q0 132 71 218t180 86q108 0 179.5-86t71.5-218-71.5-217.5-179.5-85.5q-109 0-180 85.5t-71 217.5zm68 0q0-107 51-173t132-66 131.5 66 50.5 173-50.5 173.5-131.5 66.5-132-66.5-51-173.5z"/><glyph unicode="1" horiz-adv-x="428" d="M46 410v66q40 0 97.5 39.5t65.5 55.5h70v-509h127v-62h-339v62h142v428q-18-25-72-52.5t-91-27.5z"/><glyph unicode="2" horiz-adv-x="533" d="M51 0q0 84 35.5 148t130.5 114q10 5 45 22t51 26.5 39.5 26.5 33.5 36 10 42q0 42-35 73.5t-96 31.5q-94 0-160-83l-45 49q9 10 23.5 22.5t42.5 30.5 68 30 83 12q87 0 139.5-46t52.5-112q0-23-7.5-44t-17-36.5-28-31.5-30-24.5-34-20.5-29.5-15-27-12q-89-40-123-77t-43-100h350v-62h-429z"/><glyph unicode="3" horiz-adv-x="536" d="M39-32l47 43q46-96 172-96 75 0 118 37t43 104q0 69-46 109t-129 40h-25v58h27q75 0 117 35.5t42 93.5-40.5 90-104.5 32q-57 0-100.5-25.5t-65.5-70.5l-44 42q25 52 84 84t132 32q92 0 151-50t59-129q0-62-36-107t-96-54q66-11 105.5-60t39.5-121q0-91-63.5-146.5t-167.5-55.5q-75 0-132.5 30.5t-86.5 84.5z"/><glyph unicode="4" horiz-adv-x="542" d="M21 51v60l355 460h47v-458h88v-62h-88v-178h-68v178h-334zm72 62h268v351z"/><glyph unicode="5" horiz-adv-x="551" d="M38-13l45 34q28-50 77-79.5t106-29.5q75 0 125.5 48.5t50.5 124.5q0 73-48.5 119.5t-120.5 46.5q-103 0-157-80h-63l79 400h343v-63h-292l-49-255q54 59 146 59 99 0 165.5-63.5t66.5-162.5q0-104-71.5-169.5t-175.5-65.5q-74 0-135.5 37t-91.5 99z"/><glyph unicode="6" horiz-adv-x="606" d="M55 287q0 211 70 319.5t192 108.5q70 0 126-35t85-97l-44-40q-20 51-66 81.5t-102 30.5q-89 0-142-82.5t-54-227.5q22 58 75.5 93.5t121.5 35.5q102 0 173-70t71-170q0-102-73-173t-178-71q-114 0-184.5 80t-70.5 217zm70-53q0-75 55-129.5t131-54.5 130.5 54 54.5 130q0 75-55 129.5t-130 54.5q-77 0-131.5-54t-54.5-130z"/><glyph unicode="7" horiz-adv-x="550" d="M46 520v63h491l-359-710h-78l329 647h-383z"/><glyph unicode="8" horiz-adv-x="596" d="M51 201q0 64 42 111.5t100 67.5q-51 21-84 60t-33 89q0 83 68 132t154 49 154-49 68-131q0-50-34-89.5t-85-60.5q62-21 102.5-69.5t40.5-113.5q0-91-73-148t-176-57q-105 0-174.5 61t-69.5 148zm70 0q0-66 55-107t123-41 122 42 54 107q0 67-55 108t-123 41q-69 0-122.5-42t-53.5-108zm24 325q0-55 47.5-88t105.5-33q57 0 105 34t48 89-45.5 87.5-108.5 32.5q-62 0-107-33.5t-45-88.5z"/><glyph unicode="9" horiz-adv-x="589" d="M38 327q0 102 73 173t178 71q114 0 184.5-80t70.5-217q0-211-70-319.5t-192-108.5q-70 0-126 35t-85 97l44 40q20-51 66-81.5t102-30.5q89 0 142 82.5t54 227.5q-22-58-75.5-93.5t-121.5-35.5q-102 0-173 70t-71 170zm65 0q0-75 55-129.5t130-54.5q77 0 131.5 54t54.5 130q0 75-55 129.5t-131 54.5-130.5-54-54.5-130z"/><glyph unicode=":" horiz-adv-x="197" d="M70 0v98h57v-98h-57zm0 420v98h57v-98h-57z"/><glyph unicode=";" horiz-adv-x="212" d="M58-15q21 0 21 21v92h58v-102q0-32-23.5-47.5t-55.5-15.5v52zm21 435v98h58v-98h-58z"/><glyph unicode="<" horiz-adv-x="506" d="M34 239v37l419 252v-73l-321-196 321-195v-75z"/><glyph unicode="=" horiz-adv-x="441" d="M70 194v49h302v-49h-302zm0 115v49h302v-49h-302z"/><glyph unicode=">" horiz-adv-x="506" d="M53-11v75l321 195-321 196v73l420-252v-37z"/><glyph unicode="?" horiz-adv-x="479" d="M35 590q27 60 84.5 94.5t124.5 34.5q80 0 137.5-50t57.5-141q0-38-10-66t-33.5-50-40-32.5-51.5-29.5q-30-17-46-29t-30.5-43-14.5-76h-58q0 65 20.5 104t64.5 66q5 3 33.5 18.5t40 24.5 30.5 26.5 27 40 8 50.5q0 62-40 96t-96 34q-52 0-95-29t-66-73zm121-590v107h59v-107h-59z"/><glyph unicode="@" horiz-adv-x="826" d="M50 230q0 164 110 268.5t260 104.5q151 0 257.5-107t106.5-274q0-31-4.5-63t-17.5-76-45-71.5-79-27.5q-45 0-62 24t-22 68q-30-31-74.5-51t-94.5-20q-69 0-109.5 37t-40.5 97q0 70 54 102t131 32q64 0 127-23 0 78-27.5 119.5t-96.5 41.5q-77 0-140-47l-18 39q78 52 163 52 53 0 88-17.5t50.5-50.5 20.5-63.5 5-73.5v-129q0-51 10-75.5t41-24.5q30 0 51.5 21t32.5 54 16 65 5 63q0 145-94.5 245t-234.5 100q-139 0-236-96.5t-97-242.5q0-143 94-242.5t233-99.5q76 0 154 38l13-32q-80-40-167-40-151 0-257 107.5t-106 268.5zm231-89q0-41 30-67t77-26 93 22q65 30 65 102v40q-4 1-24.5 6.5t-48 10.5-55.5 5q-60 0-98.5-22t-38.5-71z"/><glyph unicode="A" horiz-adv-x="679" d="M15 0l297 710h57l297-710h-75l-92 222h-319l-91-222h-74zm180 277h288l-142 351z"/><glyph unicode="B" horiz-adv-x="668" d="M90 0v710h341q72 0 117-55t45-126q0-54-27.5-98.5t-74.5-66.5q61-18 96.5-67t35.5-114q0-79-58-131t-141-52h-334zm69 61h265q54 0 91.5 40t37.5 94-35.5 94.5-86.5 40.5h-272v-269zm0 326h244q52 0 87 39t35 92q0 55-33 93t-83 38h-250v-262z"/><glyph unicode="C" horiz-adv-x="689" d="M44 360q0 88 38.5 167.5t117.5 133 181 53.5q92 0 160-42t102-113l-56-34q-21 45-57.5 74t-74 40.5-78.5 11.5q-120 0-191.5-89.5t-71.5-205.5q0-120 77.5-209.5t188.5-89.5q65 0 126 33.5t93 98.5l58-30q-33-76-114-120.5t-167-44.5q-94 0-171.5 54t-119 137.5-41.5 174.5z"/><glyph unicode="D" horiz-adv-x="718" d="M90 0v710h240q110 0 188-48t115-127 37-179q0-162-92-259t-248-97h-240zm69 62h171q129 0 199.5 82t70.5 212q0 131-71.5 211.5t-198.5 80.5h-171v-586z"/><glyph unicode="E" horiz-adv-x="613" d="M90 0v710h468v-62h-399v-256h348v-59h-348v-271h408v-62h-477z"/><glyph unicode="F" horiz-adv-x="585" d="M90 0v710h465v-62h-396v-261h335v-58h-335v-329h-69z"/><glyph unicode="G" horiz-adv-x="722" d="M45 356q0 146 94 252.5t234 106.5q193 0 271-155l-54-36q-67 128-218 128-114 0-185.5-89t-71.5-208q0-121 77.5-209t189.5-88q123 0 222 118v119h-157v54h217v-349h-60v103q-99-108-227-108-92 0-169.5 53t-120 135.5-42.5 172.5z"/><glyph unicode="H" horiz-adv-x="739" d="M90 0v710h69v-316h421v316h70v-710h-70v332h-421v-332h-69z"/><glyph unicode="I" horiz-adv-x="249" d="M90 0v709h69v-709h-69z"/><glyph unicode="J" horiz-adv-x="486" d="M18 33l20 56q54-37 134-37 43 0 72.5 13.5t47.5 35.5 27.5 62 12.5 81.5 3 104.5v360h70v-360q0-59-3-102t-11.5-87-24.5-72.5-41.5-52.5-63.5-35-89-11q-90 0-154 44z"/><glyph unicode="K" horiz-adv-x="641" d="M90 0v709h69v-412l391 413h77l-290-312 306-398h-77l-272 357-135-139v-218h-69z"/><glyph unicode="L" horiz-adv-x="590" d="M90 0v710h69v-648h411v-62h-480z"/><glyph unicode="M" horiz-adv-x="878" d="M90 0v710h71l278-486 278 486h71v-710h-69v583l-259-451h-41l-260 451v-583h-69z"/><glyph unicode="N" horiz-adv-x="773" d="M90 0v710h54l470-591v590h69v-709h-60l-464 580v-580h-69z"/><glyph unicode="O" d="M45 355q0 145 97 252.5t237 107.5q95 0 172.5-53.5t118.5-135.5 41-172q0-145-96.5-252t-236.5-107q-72 0-135 30.5t-106 81-67.5 115.5-24.5 133zm70 0q0-119 74.5-208t188.5-89q115 0 189 90.5t74 206.5q0 119-75 207.5t-188 88.5q-116 0-189.5-90t-73.5-206z"/><glyph unicode="P" horiz-adv-x="621" d="M90 0v710h294q88 0 149-68.5t61-154.5q0-90-57.5-157.5t-146.5-67.5h-231v-262h-69zm69 324h227q61 0 99.5 48t38.5 115q0 66-42.5 113.5t-101.5 47.5h-221v-324z"/><glyph unicode="Q" d="M45 355q0 145 97 252.5t237 107.5q95 0 172.5-53.5t118.5-135.5 41-172q0-149-100-255l84-99h-69l-54 63q-87-68-194-68-144 1-238.5 109.5t-94.5 250.5zm70 0q0-119 74.5-208t188.5-89q84 0 153 54l-89 106h69l57-68q73 87 73 205 0 119-75 208t-188 89q-77 0-138.5-44t-93-111-31.5-142z"/><glyph unicode="R" horiz-adv-x="660" d="M90 0v710h299q89 0 150-68.5t61-154.5q0-78-44.5-138.5t-114.5-74.5l175-274h-79l-168 262h-210v-262h-69zm69 324h233q61 0 99.5 48.5t38.5 114.5q0 65-43 113t-101 48h-227v-324z"/><glyph unicode="S" horiz-adv-x="612" d="M35 97l34 57q41-43 108-70.5t144-27.5q86 0 133.5 31t47.5 92-49 91-166 56q-121 28-173.5 66t-52.5 119q0 97 69.5 150.5t183.5 53.5q133 0 226-82l-33-56q-68 76-194 76-181 0-181-132 0-59 43-85t155-51q127-27 186-68.5t59-130.5q0-95-69.5-143.5t-185.5-48.5q-167 0-285 103z"/><glyph unicode="T" horiz-adv-x="614" d="M19 648v62h576v-62h-253v-648h-70v648h-253z"/><glyph unicode="U" horiz-adv-x="755" d="M79 352v358h69v-358q0-59 11.5-109t36.5-93 71.5-67.5 109.5-24.5q65 0 111.5 25t71.5 68.5 36 93 11 107.5v358h70v-358q0-74-16.5-136.5t-51-113-93.5-79-138-28.5q-66 0-118 20t-85.5 53.5-55.5 80-31 96.5-9 107z"/><glyph unicode="V" horiz-adv-x="677" d="M12 710h73l254-623 252 623h74l-296-710h-61z"/><glyph unicode="W" horiz-adv-x="1046" d="M12 710h74l258-629 135 321-124 303h67l100-252 101 252h66l-124-303 136-321 257 629h76l-300-710h-62l-149 351-150-351h-62z"/><glyph unicode="X" horiz-adv-x="631" d="M5 710h78l233-310 233 310h77l-273-360 265-350h-77l-225 300-225-300h-78l265 350z"/><glyph unicode="Y" horiz-adv-x="634" d="M8 710h76l233-382 234 382h76l-276-446v-264h-69v266z"/><glyph unicode="Z" horiz-adv-x="624" d="M28 0v55l483 593h-475v62h556v-55l-477-593h476v-62h-563z"/><glyph unicode="[" horiz-adv-x="248" d="M84-40v780h119v-57h-55v-666h55v-57h-119z"/><glyph unicode="\" horiz-adv-x="569" d="M27 710h78l435-710h-77z"/><glyph unicode="]" horiz-adv-x="248" d="M45 17h56v666h-56v57h119v-780h-119v57z"/><glyph unicode="^" horiz-adv-x="541" d="M44 303l198 407h58l197-407h-60l-166 343-169-343h-58z"/><glyph unicode="_" horiz-adv-x="415" d="M17 0h381v-62h-381v62z"/><glyph unicode="`" horiz-adv-x="222" d="M49 730h71l60-93-44-17z"/><glyph unicode="a" horiz-adv-x="548" d="M32 149q0 72 61 116t159 44q85 0 153-27v47q0 69-39.5 109.5t-106.5 40.5q-80 0-168-62l-24 45q101 68 199 68 95 0 151-55.5t56-151.5v-235q0-28 24-28v-60q-22-2-27-2-22 0-38 12.5t-17 35.5l-2 41q-33-45-88.5-71t-113.5-26q-79 0-129 46.5t-50 112.5zm66 6q0-45 34.5-79t95.5-34q46 0 90.5 20t69.5 53q17 23 17 39v85q-71 27-143 27-74 0-119-30t-45-81z"/><glyph unicode="b" horiz-adv-x="616" d="M73 0v730h68v-318q79 118 199 118 104 0 170-81.5t66-189.5q0-111-72-190t-176-79q-60 0-112 30.5t-82 80.5v-101h-61zm68 178q8-52 62.5-90t108.5-38q83 0 138.5 63t55.5 146q0 84-53 147.5t-132 63.5q-58 0-105.5-37t-74.5-93v-162z"/><glyph unicode="c" horiz-adv-x="550" d="M39 262q0 113 73.5 190.5t187.5 77.5q73 0 128.5-33t83.5-91l-66-21q-22 40-61.5 62.5t-86.5 22.5q-80 0-134.5-59.5t-54.5-148.5q0-88 56-150t134-62q49 0 94.5 26.5t57.5 62.5l66-20q-21-57-81-93t-135-36q-112 0-187 79.5t-75 192.5z"/><glyph unicode="d" horiz-adv-x="623" d="M39 259q0 112 68 191.5t170 79.5q63 0 114.5-33t83.5-85v318h68v-642q0-28 24-28v-60q-17-3-27-3-24 0-40.5 14.5t-16.5 34.5v55q-31-51-84-81t-110-30q-106 0-178 80.5t-72 188.5zm70 0q0-86 56.5-147.5t137.5-61.5q54 0 109 39t63 90v161q-20 54-73 92t-107 38q-81 0-133.5-63.5t-52.5-147.5z"/><glyph unicode="e" horiz-adv-x="587" d="M39 262q0 111 74.5 189.5t186.5 78.5q111 0 184-78.5t74-188.5q0-19-2-27h-445q6-83 61.5-138.5t130.5-55.5q52 0 97 26t63 68l59-16q-24-57-85-93.5t-136-36.5q-112 0-187 79.5t-75 192.5zm70 26h384q-7 83-61.5 136t-131.5 53-131.5-53.5-59.5-135.5z"/><glyph unicode="f" horiz-adv-x="345" d="M29 406v54h72v75q0 95 41.5 150t112.5 55q63 0 109-33l-21-49q-30 23-75 23-48 0-73.5-37t-25.5-107v-77h144v-54h-144v-406h-68v406h-72z"/><glyph unicode="g" horiz-adv-x="616" d="M40 259q0 111 68.5 191t173.5 80q119 0 200-118v109h61v-523q0-105-73-163t-183-58q-158 0-233 118l42 33q30-48 80.5-72.5t110.5-24.5q81 0 134.5 43.5t53.5 123.5v103q-31-49-83-78.5t-108-29.5q-104 0-174 80t-70 186zm69-1q0-85 56.5-146.5t137.5-61.5q59 0 111 40t61 89v161q-23 56-74 93t-107 37q-83 0-134-64.5t-51-147.5z"/><glyph unicode="h" horiz-adv-x="579" d="M73 0v730h68v-327q32 59 87 93t118 34q165 0 165-225v-305h-68v291q0 177-120 177-58 0-111-43t-71-106v-319h-68z"/><glyph unicode="i" horiz-adv-x="214" d="M73 0v521h68v-521h-68zm0 630v100h68v-100h-68z"/><glyph unicode="j" horiz-adv-x="214" d="M-126-142l33 46q27-24 73-24 36 0 64.5 27t28.5 66v548h68v-544q0-67-46.5-112.5t-106.5-45.5q-72 0-114 39zm199 772v100h68v-100h-68z"/><glyph unicode="k" horiz-adv-x="527" d="M73 0v730h68v-496l293 286h77l-213-213 221-307h-74l-192 267-112-104v-163h-68z"/><glyph unicode="l" horiz-adv-x="264" d="M76 95v635h68v-612q0-29 16-45.5t45-16.5q27 0 54 11l12-55q-45-18-94-18-47 0-74 27t-27 74z"/><glyph unicode="m" horiz-adv-x="916" d="M73 0v521h62v-118q32 60 84 93.5t115 33.5q64 0 105-36.5t49-97.5q73 134 202 134 158 0 158-225v-305h-68v291q0 177-115 177-59 0-105.5-41.5t-65.5-108.5v-318h-68v291q0 92-28 134.5t-86 42.5-104.5-41-66.5-108v-319h-68z"/><glyph unicode="n" horiz-adv-x="579" d="M73 0v521h62v-118q32 57 92 92t129 35q84 0 119.5-58t35.5-167v-305h-68v291q0 92-27 134.5t-84 42.5q-61 0-116.5-42.5t-74.5-106.5v-319h-68z"/><glyph unicode="o" horiz-adv-x="595" d="M39 259q0 111 74.5 191t184.5 80 184.5-80 74.5-191-74-190-185-79q-112 0-185.5 79t-73.5 190zm70-1q0-87 55-147.5t133-60.5 134 61.5 56 148.5-56 148.5-133 61.5q-78 0-133.5-62t-55.5-150z"/><glyph unicode="p" horiz-adv-x="615" d="M73-213v734h61v-101q32 50 84 80t110 30q105 0 176.5-81.5t71.5-188.5q0-113-66.5-191.5t-169.5-78.5q-63 0-115 32.5t-84 85.5v-321h-68zm68 394q24-57 73.5-94t106.5-37q81 0 133 63.5t52 146.5q0 85-56.5 147.5t-137.5 62.5q-53 0-108-39t-63-90v-160z"/><glyph unicode="q" horiz-adv-x="615" d="M39 260q0 110 72.5 190t175.5 80q59 0 111-30.5t83-80.5v102h61v-643q0-28 24-29v-59q-14-3-29-3-26 0-44.5 18t-18.5 44v259q-77-118-199-118-103 0-169.5 80.5t-66.5 189.5zm70-1q0-86 53.5-147.5t133.5-61.5q112 0 178 123v161q-8 53-62 94.5t-111 41.5q-82 0-137-64t-55-147z"/><glyph unicode="r" horiz-adv-x="351" d="M73 0v521h64v-125q28 57 72.5 92.5t93.5 35.5q23 0 30-1v-62q-69-2-120-38t-72-99v-324h-68z"/><glyph unicode="s" horiz-adv-x="487" d="M29 68l31 46q87-72 187-72 63 0 100.5 26t37.5 72q0 40-34 59t-123 40q-100 25-137.5 50t-37.5 83q0 76 55.5 117t139.5 41q120 0 188-71l-33-40q-59 60-157 60-57 0-92.5-24t-35.5-73q0-39 26.5-55t103.5-34q112-27 157.5-56t45.5-91q0-71-55.5-113.5t-147.5-42.5q-133 0-219 78z"/><glyph unicode="t" horiz-adv-x="332" d="M25 467v54h72v176h68v-176h120v-54h-120v-354q2-27 19.5-41.5t43.5-14.5q42 0 79 23l18-55q-71-31-118-31t-78.5 26-31.5 74v373h-72z"/><glyph unicode="u" horiz-adv-x="594" d="M68 215v306h68v-294q0-177 121-177 61 0 113 39t75 104v328h68v-433q0-28 25-28v-60q-20-3-28-3-23 0-39.5 14t-16.5 35v72q-34-60-92.5-94t-127.5-34q-166 0-166 225z"/><glyph unicode="v" horiz-adv-x="530" d="M17 521h71l179-458 180 458h66l-212-521h-72z"/><glyph unicode="w" horiz-adv-x="815" d="M17 521h65l190-451 99 238-89 212h58l68-170 67 170h58l-88-212 99-238 189 451h66l-223-521h-57l-111 266-111-266h-57z"/><glyph unicode="x" horiz-adv-x="500" d="M13 0l199 259-199 262h73l156-204 8-15 9 15 155 204h73l-199-262 199-259h-73l-155 203-9 14-8-14-155-203h-74z"/><glyph unicode="y" horiz-adv-x="542" d="M13 521h71l193-458 178 458h65l-271-672q-15-38-41-55.5t-71-17.5q-19 0-34 3v60q12-2 20-2 24 0 38 6 11 5 26 34t53 123z"/><glyph unicode="z" horiz-adv-x="486" d="M28 0v46l352 424h-344v51h418v-46l-350-424h350v-51h-426z"/><glyph unicode="{" horiz-adv-x="253" d="M53 335v52q19 0 29 18t10 35v270q0 16 7.5 23t15.5 7h94v-57h-55v-261q0-38-27-62 27-23 27-62v-272h55v-57h-94q-23 0-23 30v281q0 21-10.5 37t-28.5 18z"/><glyph unicode="|" horiz-adv-x="223" d="M82-130v905h59v-905h-59z"/><glyph unicode="}" horiz-adv-x="253" d="M45 26h55v272q0 40 26 62-26 24-26 62v261h-55v57h94q4 0 8.5-2t9.5-9.5 5-18.5v-270q0-17 9.5-35t28.5-18v-52q-18-2-28-18t-10-37v-281q0-30-23-30h-94v57z"/><glyph unicode="~" horiz-adv-x="508" d="M65 241q0 22 28.5 62.5t79.5 40.5q31 0 82-29t78-29q23 0 40 12.5t23 23.5 6 16h43q0-3-3.5-12.5t-12-24-20.5-28-32.5-23-44.5-9.5q-35 0-86.5 29t-73.5 29q-21 0-37-14.5t-21.5-27-5.5-16.5h-43z"/><glyph unicode="¡" horiz-adv-x="244" d="M88-2v489h68v-489h-68zm0 605v112h68v-112h-68z"/><glyph unicode="¢" horiz-adv-x="567" d="M46 258q0 105 64.5 183.5t168.5 87.5v116h37v-116q144-4 203-123l-65-21q-43 78-138 83v-417q44 2 88 27t55 61l66-20q-22-60-85-94.5t-124-34.5v-110h-37v111q-99 8-166 88.5t-67 178.5zm70 0q0-75 46.5-134t116.5-70v412q-74-7-118.5-69t-44.5-139z"/><glyph unicode="£" horiz-adv-x="505" d="M53 318v54h94q-6 12-22 40.5t-23.5 44-15 40.5-7.5 47q0 71 53.5 121t128.5 50q54 0 102.5-28t78.5-77l-40-42q-24 41-63 65.5t-80 24.5q-49 0-82.5-34t-33.5-84q0-27 10-52.5t30.5-61.5 28.5-54h178v-54h-158q8-30 8-60 0-51-23.5-97t-80.5-107q38 9 74 9 29 0 74-9t68-9q35 0 89 18l17-52q-54-26-109-26-30 0-83 12t-84 12q-50 0-108-17l-18 50q69 68 96.5 115.5t27.5 96.5q0 31-10 64h-117z"/><glyph unicode="¥" horiz-adv-x="678" d="M30 710h76l232-382 234 382h77l-216-344h84v-48h-111l-33-54v-27h145v-48h-145v-189h-70v189h-143v48h143v29l-31 52h-112v48h86z"/><glyph unicode="¦" horiz-adv-x="227" d="M84-130v407h59v-407h-59zm0 498v407h59v-407h-59z"/><glyph unicode="§" horiz-adv-x="512" d="M49 542q0 75 59.5 124t142.5 49q115 0 178-95l-53-25q-15 29-50.5 43.5t-74.5 14.5q-56 0-95-29.5t-39-83.5q0-91 132-98 200-11 200-153 0-60-30-94 46-28 46-102 0-88-62.5-134.5t-141.5-46.5q-111 0-196 91l44 42q72-68 148-68 56 0 97 30t41 83q0 28-11.5 46t-33.5 26.5-38.5 11.5-42.5 5q-195 17-195 159 0 56 26 89-22 16-36.5 47t-14.5 68zm91-213q0-41 25.5-64t57-28 73-10 59.5-12q29 23 29 72 0 52-39.5 74.5t-93.5 24.5-86 14q-25-23-25-71z"/><glyph unicode="¨" horiz-adv-x="329" d="M61 633v94h58v-94h-58zm149 0v94h58v-94h-58z"/><glyph unicode="©" horiz-adv-x="838" d="M51 355q0 155 104.5 257.5t262.5 102.5q159 0 264-102.5t105-257.5-105-258.5-264-103.5q-158 0-262.5 103.5t-104.5 258.5zm34-1q0-140 95-234t238-94 238.5 91.5 95.5 235.5q0 142-95 235.5t-239 93.5q-143 0-238-93.5t-95-234.5zm107 1q0 93 59.5 163.5t168.5 70.5q67 0 118-29t73-82l-65-21q-33 72-126 72-75 0-116.5-52.5t-41.5-121.5q0-77 50.5-125t109.5-48q39 0 77 21t54 55l66-19q-16-43-70-79.5t-124-36.5q-94 0-163.5 65t-69.5 167z"/><glyph unicode="ª" horiz-adv-x="434" d="M47 456q0 48 42 78.5t107 30.5q60 0 102-18v28q0 43-25.5 68t-70.5 25q-52 0-114-41l-20 37q70 46 139 46 70 0 110-37t40-104v-143q0-21 19-22v-52q-18-2-23-2-20 0-32.5 10t-13.5 26l-1 25q-51-65-140-65-50 0-84.5 32t-34.5 78zm56 4q0-29 22.5-49t56.5-20q42 0 79 22t37 47v52q-37 16-92 16-46 0-74.5-18.5t-28.5-49.5z"/><glyph unicode="«" horiz-adv-x="578" d="M44 239v37l249 178v-59l-193-136 193-134v-59zm221 0v37l248 178v-59l-192-136 192-134v-59z"/><glyph unicode="¬" horiz-adv-x="589" d="M79 302v62h439v-238h-60v176h-379z"/><glyph unicode="­" horiz-adv-x="570" d="M66 241v63h439v-63h-439z"/><glyph unicode="®" horiz-adv-x="838" d="M51 355q0 155 104.5 257.5t262.5 102.5q159 0 264-102.5t105-257.5-105-258.5-264-103.5q-158 0-262.5 103.5t-104.5 258.5zm36 0q0-141 94-235.5t237-94.5 238 92 95 237q0 141-94.5 234.5t-238.5 93.5q-143 0-237-93.5t-94-233.5zm179-228v453h191q56 0 95-44t39-99q0-49-28.5-87.5t-73.5-47.5l111-175h-58l-106 168h-118v-168h-52zm52 214h139q39 0 61 27t22 69q0 41-24.5 68t-62.5 27h-135v-191z"/><glyph unicode="¯" horiz-adv-x="396" d="M54 663v47h289v-47h-289z"/><glyph unicode="°" horiz-adv-x="267" d="M50 642q0 34 24 58t59 24 59-23.5 24-58.5q0-36-24-60t-59-24-59 24-24 60zm39-1q0-18 13-31t31-13q19 0 31.5 12.5t12.5 31.5-12.5 31.5-31.5 12.5q-18 0-31-13t-13-31z"/><glyph unicode="±" horiz-adv-x="460" d="M69 61v57h323v-57h-323zm0 275v57h130v140h62v-140h131v-57h-131v-140h-62v140h-130z"/><glyph unicode="²" horiz-adv-x="390" d="M37 327q0 75 29.5 116t96.5 67q9 3 31 11.5t32.5 12.5 27.5 13 25 17.5 14.5 21 6.5 27.5q0 32-26.5 53t-75.5 21q-77 0-127-55l-30 31q8 11 24.5 24.5t55.5 28.5 83 15q70 0 108-33t38-84q0-19-5-35t-16-28-20.5-20.5-26.5-16.5-26-11.5-26.5-9-20.5-6.5q-106-36-106-117h242v-43h-308z"/><glyph unicode="³" horiz-adv-x="392" d="M36 410l27 29q3-27 39.5-50t88.5-23q50 0 83 19.5t33 51.5q0 35-40 54.5t-109 19.5h-23v41h23q135 0 135 66 0 32-31 52t-75 20q-82 0-116-56l-31 34q18 29 58.5 46t88.5 17q66 0 110-31.5t44-78.5q0-69-91-88 47-7 75-35t28-67q0-50-47-80t-115-30q-62 0-105 24.5t-50 64.5z"/><glyph unicode="´" horiz-adv-x="222" d="M49 637l59 93h72l-86-110z"/><glyph unicode="µ" horiz-adv-x="598" d="M80-212v733h68v-294q0-177 123-177 60 0 112 39t75 104v328h68v-433q0-28 25-28v-60q-19-3-29-3-23 0-39 14t-16 35v72q-28-55-83-91.5t-116-36.5q-92 0-123 85v-287h-65z"/><glyph unicode="¶" horiz-adv-x="599" d="M36 469q0 113 74.5 177t207.5 64h241v-54h-70v-736h-60v311h-74v-311h-59v311q-120 2-190 65.5t-70 172.5zm59 2q0-88 56.5-134.5t144.5-51.5v371q-96-1-148.5-50t-52.5-135zm260-186h74v371h-74v-371z"/><glyph unicode="·" horiz-adv-x="189" d="M66 246v112h58v-112h-58z"/><glyph unicode="¸" horiz-adv-x="283" d="M22-157l17 31q36-18 88-18 57 0 57 35 0 36-50 36-40 0-80-14l57 105 33-13-35-56q14 6 38 6 35 0 55.5-16t20.5-45q0-70-102-70-50 0-99 19z"/><glyph unicode="¹" horiz-adv-x="272" d="M34 631v45q19 0 42.5 13.5t37.5 26 15 15.5h46v-360h75v-45h-202v45h81v309q-12-15-42.5-32t-52.5-17z"/><glyph unicode="º" horiz-adv-x="448" d="M44 528q0 76 51 129t129 53 129-53 51-129q0-75-51-128.5t-129-53.5-129 53.5-51 128.5zm60-1q0-55 35-92.5t85-37.5 85 38.5 35 93.5q0 54-35 91.5t-85 37.5-85-38-35-93z"/><glyph unicode="»" horiz-adv-x="578" d="M64 66v59l193 134-193 136v59l248-178v-37zm221 0v59l192 134-192 136v59l248-178v-37z"/><glyph unicode="¼" horiz-adv-x="830" d="M46 631v45q19 0 42.5 13.5t37.5 26 15 15.5h46v-360h75v-45h-202v45h81v309q-12-15-42.5-32t-52.5-17zm88-604l280 340 271 347 35-30-278-340-273-348zm327 76v42l242 254h31v-252h57v-44h-57v-103h-45v103h-228zm48 44h181v191z"/><glyph unicode="½" horiz-adv-x="869" d="M49 631v45q19 0 42.5 13.5t37.5 26 15 15.5h46v-360h75v-45h-202v45h81v309q-12-15-42.5-32t-52.5-17zm52-604l280 340 271 347 35-30-278-340-273-348zm419-27q0 75 29.5 116.5t93.5 67.5q7 3 29.5 11t32 12 26.5 13 24.5 17 14 21 6.5 28q0 32-26 53.5t-73 21.5q-73 0-124-56l-29 32q9 11 24.5 24t53.5 28 81 15q68 0 105-33t37-86q0-29-12-51t-37.5-37-41-21-45.5-16q-59-19-85.5-51.5t-26.5-64.5h249v-44h-306z"/><glyph unicode="¾" horiz-adv-x="846" d="M44 410l27 29q3-27 39.5-50t88.5-23q50 0 83 19.5t33 51.5q0 35-40 54.5t-109 19.5h-23v41h23q135 0 135 66 0 32-31 52t-75 20q-82 0-116-56l-31 34q18 29 58.5 46t88.5 17q66 0 110-31.5t44-78.5q0-69-91-88 47-7 75-35t28-67q0-50-47-80t-115-30q-62 0-105 24.5t-50 64.5zm125-383l280 340 271 347 35-30-278-340-273-348zm302 76v42l242 254h31v-252h57v-44h-57v-103h-45v103h-228zm48 44h181v191z"/><glyph unicode="¿" horiz-adv-x="472" d="M36-22q0 38 10 66t33.5 50 40 32.5 51.5 29.5q30 17 46 29t30.5 43 14.5 76h58q0-65-20.5-104t-64.5-66q-5-3-33.5-18.5t-40-24.5-30.5-26.5-27-40-8-50.5q0-62 40-96t96-34q52 0 95 29t66 73l47-30q-27-60-84.5-94.5t-124.5-34.5q-80 0-137.5 50t-57.5 141zm224 421v107h59v-107h-59z"/><glyph unicode="À" horiz-adv-x="679" d="M15 0l297 710h57l297-710h-75l-92 222h-319l-91-222h-74zm180 277h288l-142 351zm53 640h71l60-93-44-17z"/><glyph unicode="Á" horiz-adv-x="679" d="M15 0l297 710h57l297-710h-75l-92 222h-319l-91-222h-74zm180 277h288l-142 351zm107 547l59 93h72l-86-110z"/><glyph unicode="Â" horiz-adv-x="679" d="M15 0l297 710h57l297-710h-75l-92 222h-319l-91-222h-74zm180 277h288l-142 351zm22 555l98 85h50l99-85-39-21-85 63-85-63z"/><glyph unicode="Ã" horiz-adv-x="679" d="M15 0l297 710h57l297-710h-75l-92 222h-319l-91-222h-74zm167 817q0 12 6 31t28.5 40.5 56.5 21.5q29 0 66.5-21t61.5-21q23 0 37.5 12.5t17 21.5 2.5 15h42q0-7-4.5-20t-14-30.5-30.5-29.5-49-12q-32 0-70.5 20t-57.5 20q-20 0-32-12t-15-21-3-15h-42zm13-540h288l-142 351z"/><glyph unicode="Ä" horiz-adv-x="679" d="M15 0l297 710h57l297-710h-75l-92 222h-319l-91-222h-74zm180 277h288l-142 351zm42 543v94h58v-94h-58zm149 0v94h58v-94h-58z"/><glyph unicode="Å" horiz-adv-x="679" d="M15 0l297 710h57l297-710h-75l-92 222h-319l-91-222h-74zm180 277h288l-142 351zm71 575q0 29 21 47t53 18q33 0 53.5-18t20.5-47q0-30-20.5-48t-53.5-18-53.5 18-20.5 48zm34 0q0-17 11.5-28t28.5-11q16 0 28.5 11t12.5 28-11.5 27.5-29.5 10.5q-17 0-28.5-10.5t-11.5-27.5z"/><glyph unicode="Æ" horiz-adv-x="991" d="M-1 0l457 710h481v-62h-394v-255h340v-62h-340v-269h403v-62h-471v222h-259l-141-222h-76zm249 284h222v342z"/><glyph unicode="Ç" horiz-adv-x="690" d="M45 360q0 88 38.5 167.5t117.5 133 181 53.5q92 0 160-42t102-113l-56-34q-21 45-57.5 74t-74 40.5-78.5 11.5q-120 0-191.5-89.5t-71.5-205.5q0-120 77.5-209.5t188.5-89.5q65 0 126 33.5t93 98.5l58-30q-31-71-104.5-114.5t-155.5-49.5l-28-46q14 6 38 6 35 0 55.5-16t20.5-45q0-70-102-70-50 0-99 19l17 31q36-18 88-18 57 0 57 35 0 36-50 36-40 0-80-14l44 82q-89 5-162.5 59.5t-112.5 136-39 169.5z"/><glyph unicode="È" horiz-adv-x="613" d="M90 0v710h468v-62h-399v-256h348v-59h-348v-271h408v-62h-477zm155 917h71l60-93-44-17z"/><glyph unicode="É" horiz-adv-x="613" d="M90 0v710h468v-62h-399v-256h348v-59h-348v-271h408v-62h-477zm209 824l59 93h72l-86-110z"/><glyph unicode="Ê" horiz-adv-x="613" d="M90 0v710h468v-62h-399v-256h348v-59h-348v-271h408v-62h-477zm124 832l98 85h50l99-85-39-21-85 63-85-63z"/><glyph unicode="Ë" horiz-adv-x="613" d="M90 0v710h468v-62h-399v-256h348v-59h-348v-271h408v-62h-477zm144 820v94h58v-94h-58zm149 0v94h58v-94h-58z"/><glyph unicode="Ì" horiz-adv-x="249" d="M31 917h71l60-93-44-17zm59-917v709h69v-709h-69z"/><glyph unicode="Í" horiz-adv-x="249" d="M86 824l59 93h72l-86-110zm4-824v709h69v-709h-69z"/><glyph unicode="Î" horiz-adv-x="249" d="M1 832l98 85h50l99-85-39-21-85 63-85-63zm89-832v709h69v-709h-69z"/><glyph unicode="Ï" horiz-adv-x="249" d="M21 820v94h58v-94h-58zm69-820v709h69v-709h-69zm80 820v94h58v-94h-58z"/><glyph unicode="Ð" horiz-adv-x="723" d="M34 330v54h61v326h240q110 0 188-48t115-127 37-179q0-162-92-259t-248-97h-240v330h-61zm130-268h171q129 0 199.5 82t70.5 212q0 131-71.5 211.5t-198.5 80.5h-171v-264h171v-54h-171v-268z"/><glyph unicode="Ñ" horiz-adv-x="773" d="M90 0v710h54l470-591v590h69v-709h-60l-464 580v-580h-69zm141 817q0 12 6 31t28.5 40.5 56.5 21.5q29 0 66.5-21t61.5-21q23 0 37.5 12.5t17 21.5 2.5 15h42q0-7-4.5-20t-14-30.5-30.5-29.5-49-12q-32 0-70.5 20t-57.5 20q-20 0-32-12t-15-21-3-15h-42z"/><glyph unicode="Ò" d="M45 355q0 145 97 252.5t237 107.5q95 0 172.5-53.5t118.5-135.5 41-172q0-145-96.5-252t-236.5-107q-72 0-135 30.5t-106 81-67.5 115.5-24.5 133zm70 0q0-119 74.5-208t188.5-89q115 0 189 90.5t74 206.5q0 119-75 207.5t-188 88.5q-116 0-189.5-90t-73.5-206zm171 562h71l60-93-44-17z"/><glyph unicode="Ó" d="M45 355q0 145 97 252.5t237 107.5q95 0 172.5-53.5t118.5-135.5 41-172q0-145-96.5-252t-236.5-107q-72 0-135 30.5t-106 81-67.5 115.5-24.5 133zm70 0q0-119 74.5-208t188.5-89q115 0 189 90.5t74 206.5q0 119-75 207.5t-188 88.5q-116 0-189.5-90t-73.5-206zm225 469l59 93h72l-86-110z"/><glyph unicode="Ô" d="M45 355q0 145 97 252.5t237 107.5q95 0 172.5-53.5t118.5-135.5 41-172q0-145-96.5-252t-236.5-107q-72 0-135 30.5t-106 81-67.5 115.5-24.5 133zm70 0q0-119 74.5-208t188.5-89q115 0 189 90.5t74 206.5q0 119-75 207.5t-188 88.5q-116 0-189.5-90t-73.5-206zm141 477l98 85h50l99-85-39-21-85 63-85-63z"/><glyph unicode="Õ" d="M45 355q0 145 97 252.5t237 107.5q95 0 172.5-53.5t118.5-135.5 41-172q0-145-96.5-252t-236.5-107q-72 0-135 30.5t-106 81-67.5 115.5-24.5 133zm70 0q0-119 74.5-208t188.5-89q115 0 189 90.5t74 206.5q0 119-75 207.5t-188 88.5q-116 0-189.5-90t-73.5-206zm106 462q0 12 6 31t28.5 40.5 56.5 21.5q29 0 66.5-21t61.5-21q23 0 37.5 12.5t17 21.5 2.5 15h42q0-7-4.5-20t-14-30.5-30.5-29.5-49-12q-32 0-70.5 20t-57.5 20q-20 0-32-12t-15-21-3-15h-42z"/><glyph unicode="Ö" d="M45 355q0 145 97 252.5t237 107.5q95 0 172.5-53.5t118.5-135.5 41-172q0-145-96.5-252t-236.5-107q-72 0-135 30.5t-106 81-67.5 115.5-24.5 133zm70 0q0-119 74.5-208t188.5-89q115 0 189 90.5t74 206.5q0 119-75 207.5t-188 88.5q-116 0-189.5-90t-73.5-206zm160 465v94h58v-94h-58zm149 0v94h58v-94h-58z"/><glyph unicode="×" horiz-adv-x="462" d="M66 152l121 120-120 121 44 43 120-120 120 121 43-44-120-121 122-121-44-43-121 121-122-121z"/><glyph unicode="Ø" d="M45 355q0 145 97 252.5t237 107.5q89 0 166-49l30 44h78l-57-85q54-53 84.5-124.5t30.5-146.5q0-145-96.5-252t-236.5-107q-93 0-169 49l-29-44h-77l56 84q-54 52-84 123t-30 148zm70 0q0-127 81-216l313 472q-61 40-131 40-116 0-189.5-90t-73.5-206zm130-257q61-40 133-40 115 0 189 90.5t74 206.5q0 126-82 214z"/><glyph unicode="Ù" horiz-adv-x="755" d="M79 352v358h69v-358q0-59 11.5-109t36.5-93 71.5-67.5 109.5-24.5q65 0 111.5 25t71.5 68.5 36 93 11 107.5v358h70v-358q0-74-16.5-136.5t-51-113-93.5-79-138-28.5q-66 0-118 20t-85.5 53.5-55.5 80-31 96.5-9 107zm206 565h71l60-93-44-17z"/><glyph unicode="Ú" horiz-adv-x="755" d="M79 352v358h69v-358q0-59 11.5-109t36.5-93 71.5-67.5 109.5-24.5q65 0 111.5 25t71.5 68.5 36 93 11 107.5v358h70v-358q0-74-16.5-136.5t-51-113-93.5-79-138-28.5q-66 0-118 20t-85.5 53.5-55.5 80-31 96.5-9 107zm260 472l59 93h72l-86-110z"/><glyph unicode="Û" horiz-adv-x="755" d="M79 352v358h69v-358q0-59 11.5-109t36.5-93 71.5-67.5 109.5-24.5q65 0 111.5 25t71.5 68.5 36 93 11 107.5v358h70v-358q0-74-16.5-136.5t-51-113-93.5-79-138-28.5q-66 0-118 20t-85.5 53.5-55.5 80-31 96.5-9 107zm176 480l98 85h50l99-85-39-21-85 63-85-63z"/><glyph unicode="Ü" horiz-adv-x="755" d="M79 352v358h69v-358q0-59 11.5-109t36.5-93 71.5-67.5 109.5-24.5q65 0 111.5 25t71.5 68.5 36 93 11 107.5v358h70v-358q0-74-16.5-136.5t-51-113-93.5-79-138-28.5q-66 0-118 20t-85.5 53.5-55.5 80-31 96.5-9 107zm196 468v94h58v-94h-58zm149 0v94h58v-94h-58z"/><glyph unicode="Ý" horiz-adv-x="634" d="M8 710h76l233-382 234 382h76l-276-446v-264h-69v266zm270 114l59 93h72l-86-110z"/><glyph unicode="Þ" horiz-adv-x="606" d="M90 0v710h69v-141h206q89 0 150-68.5t61-154.5q0-90-58-157.5t-147-67.5h-212v-121h-69zm69 184h210q61 0 99 48.5t38 113.5-42.5 113-101.5 48h-203v-323z"/><glyph unicode="ß" horiz-adv-x="551" d="M73 0v515q0 88 56.5 143.5t143.5 55.5q80 0 133.5-45t53.5-115q0-53-31-96.5t-75-54.5q73-16 115-69t42-127q0-99-74-154t-201-59v63q96 2 150.5 40.5t54.5 113.5q0 70-46.5 113.5t-120.5 43.5h-18v62h17q53 0 87.5 32t34.5 82q0 51-35.5 80.5t-88.5 29.5q-64 0-98.5-42t-34.5-107v-505h-65z"/><glyph unicode="à" horiz-adv-x="548" d="M32 149q0 72 61 116t159 44q85 0 153-27v47q0 69-39.5 109.5t-106.5 40.5q-80 0-168-62l-24 45q101 68 199 68 95 0 151-55.5t56-151.5v-235q0-28 24-28v-60q-22-2-27-2-22 0-38 12.5t-17 35.5l-2 41q-33-45-88.5-71t-113.5-26q-79 0-129 46.5t-50 112.5zm66 6q0-45 34.5-79t95.5-34q46 0 90.5 20t69.5 53q17 23 17 39v85q-71 27-143 27-74 0-119-30t-45-81zm72 575h71l60-93-44-17z"/><glyph unicode="á" horiz-adv-x="548" d="M32 149q0 72 61 116t159 44q85 0 153-27v47q0 69-39.5 109.5t-106.5 40.5q-80 0-168-62l-24 45q101 68 199 68 95 0 151-55.5t56-151.5v-235q0-28 24-28v-60q-22-2-27-2-22 0-38 12.5t-17 35.5l-2 41q-33-45-88.5-71t-113.5-26q-79 0-129 46.5t-50 112.5zm66 6q0-45 34.5-79t95.5-34q46 0 90.5 20t69.5 53q17 23 17 39v85q-71 27-143 27-74 0-119-30t-45-81zm126 482l59 93h72l-86-110z"/><glyph unicode="â" horiz-adv-x="548" d="M32 149q0 72 61 116t159 44q85 0 153-27v47q0 69-39.5 109.5t-106.5 40.5q-80 0-168-62l-24 45q101 68 199 68 95 0 151-55.5t56-151.5v-235q0-28 24-28v-60q-22-2-27-2-22 0-38 12.5t-17 35.5l-2 41q-33-45-88.5-71t-113.5-26q-79 0-129 46.5t-50 112.5zm66 6q0-45 34.5-79t95.5-34q46 0 90.5 20t69.5 53q17 23 17 39v85q-71 27-143 27-74 0-119-30t-45-81zm42 490l98 85h50l99-85-39-21-85 63-85-63z"/><glyph unicode="ã" horiz-adv-x="548" d="M32 149q0 72 61 116t159 44q85 0 153-27v47q0 69-39.5 109.5t-106.5 40.5q-80 0-168-62l-24 45q101 68 199 68 95 0 151-55.5t56-151.5v-235q0-28 24-28v-60q-22-2-27-2-22 0-38 12.5t-17 35.5l-2 41q-33-45-88.5-71t-113.5-26q-79 0-129 46.5t-50 112.5zm66 6q0-45 34.5-79t95.5-34q46 0 90.5 20t69.5 53q17 23 17 39v85q-71 27-143 27-74 0-119-30t-45-81zm7 475q0 12 6 31t28.5 40.5 56.5 21.5q29 0 66.5-21t61.5-21q23 0 37.5 12.5t17 21.5 2.5 15h42q0-7-4.5-20t-14-30.5-30.5-29.5-49-12q-32 0-70.5 20t-57.5 20q-20 0-32-12t-15-21-3-15h-42z"/><glyph unicode="ä" horiz-adv-x="548" d="M32 149q0 72 61 116t159 44q85 0 153-27v47q0 69-39.5 109.5t-106.5 40.5q-80 0-168-62l-24 45q101 68 199 68 95 0 151-55.5t56-151.5v-235q0-28 24-28v-60q-22-2-27-2-22 0-38 12.5t-17 35.5l-2 41q-33-45-88.5-71t-113.5-26q-79 0-129 46.5t-50 112.5zm66 6q0-45 34.5-79t95.5-34q46 0 90.5 20t69.5 53q17 23 17 39v85q-71 27-143 27-74 0-119-30t-45-81zm61 478v94h58v-94h-58zm149 0v94h58v-94h-58z"/><glyph unicode="å" horiz-adv-x="548" d="M32 149q0 72 61 116t159 44q85 0 153-27v47q0 69-39.5 109.5t-106.5 40.5q-80 0-168-62l-24 45q101 68 199 68 95 0 151-55.5t56-151.5v-235q0-28 24-28v-60q-22-2-27-2-22 0-38 12.5t-17 35.5l-2 41q-33-45-88.5-71t-113.5-26q-79 0-129 46.5t-50 112.5zm66 6q0-45 34.5-79t95.5-34q46 0 90.5 20t69.5 53q17 23 17 39v85q-71 27-143 27-74 0-119-30t-45-81zm90 510q0 29 21 47t53 18 53-18 21-47q0-30-20.5-48t-53.5-18-53.5 18-20.5 48zm34 0q0-17 11.5-28t28.5-11q16 0 28.5 11t12.5 28-11.5 27.5-29.5 10.5q-17 0-28.5-10.5t-11.5-27.5z"/><glyph unicode="æ" horiz-adv-x="932" d="M34 152q0 69 60.5 113t156.5 44q69 0 134-20 4 45 17 76-9 53-47 83.5t-97 30.5q-76 0-166-62l-24 45q101 68 196 68 131 0 180-104 34 48 86 76t113 28q112 0 185.5-78.5t74.5-191.5q0-20-1-24h-453q7-84 64.5-139t135.5-55q52 0 97 26t63 68l59-16q-24-57-85.5-93.5t-136.5-36.5q-67 0-123 31t-91 84q-32-57-95.5-86t-130.5-29q-73 0-122.5 47t-49.5 115zm64 5q0-49 36-82t88-33q53 0 98 20t68 53q16 16 18 35-19 38-21 96-60 20-125 20-72 0-117-30t-45-79zm351 125h389q-6 85-61 140t-135 55q-79 0-133.5-55t-59.5-140z"/><glyph unicode="ç" horiz-adv-x="552" d="M40 262q0 113 73.5 190.5t187.5 77.5q73 0 128.5-33t83.5-91l-66-21q-22 40-61.5 62.5t-86.5 22.5q-80 0-134.5-59.5t-54.5-148.5q0-88 56-150t134-62q49 0 94.5 26.5t57.5 62.5l66-20q-20-53-74.5-88t-123.5-40l-26-42q14 6 38 6 35 0 55.5-16t20.5-45q0-70-102-70-50 0-99 19l17 31q36-18 88-18 57 0 57 35 0 36-50 36-40 0-80-14l42 78q-104 7-172.5 85.5t-68.5 185.5z"/><glyph unicode="è" horiz-adv-x="587" d="M39 262q0 111 74.5 189.5t186.5 78.5q111 0 184-78.5t74-188.5q0-19-2-27h-445q6-83 61.5-138.5t130.5-55.5q52 0 97 26t63 68l59-16q-24-57-85-93.5t-136-36.5q-112 0-187 79.5t-75 192.5zm70 26h384q-7 83-61.5 136t-131.5 53-131.5-53.5-59.5-135.5zm95 442h71l60-93-44-17z"/><glyph unicode="é" horiz-adv-x="587" d="M39 262q0 111 74.5 189.5t186.5 78.5q111 0 184-78.5t74-188.5q0-19-2-27h-445q6-83 61.5-138.5t130.5-55.5q52 0 97 26t63 68l59-16q-24-57-85-93.5t-136-36.5q-112 0-187 79.5t-75 192.5zm70 26h384q-7 83-61.5 136t-131.5 53-131.5-53.5-59.5-135.5zm149 349l59 93h72l-86-110z"/><glyph unicode="ê" horiz-adv-x="587" d="M39 262q0 111 74.5 189.5t186.5 78.5q111 0 184-78.5t74-188.5q0-19-2-27h-445q6-83 61.5-138.5t130.5-55.5q52 0 97 26t63 68l59-16q-24-57-85-93.5t-136-36.5q-112 0-187 79.5t-75 192.5zm70 26h384q-7 83-61.5 136t-131.5 53-131.5-53.5-59.5-135.5zm65 357l98 85h50l99-85-39-21-85 63-85-63z"/><glyph unicode="ë" horiz-adv-x="587" d="M39 262q0 111 74.5 189.5t186.5 78.5q111 0 184-78.5t74-188.5q0-19-2-27h-445q6-83 61.5-138.5t130.5-55.5q52 0 97 26t63 68l59-16q-24-57-85-93.5t-136-36.5q-112 0-187 79.5t-75 192.5zm70 26h384q-7 83-61.5 136t-131.5 53-131.5-53.5-59.5-135.5zm85 345v94h58v-94h-58zm149 0v94h58v-94h-58z"/><glyph unicode="ì" horiz-adv-x="214" d="M14 730h71l60-93-44-17zm59-730v521h68v-521h-68z"/><glyph unicode="í" horiz-adv-x="214" d="M68 637l59 93h72l-86-110zm5-637v521h68v-521h-68z"/><glyph unicode="î" horiz-adv-x="214" d="M-16 645l98 85h50l99-85-39-21-85 63-85-63zm89-645v521h68v-521h-68z"/><glyph unicode="ï" horiz-adv-x="214" d="M4 633v94h58v-94h-58zm69-633v521h68v-521h-68zm80 633v94h58v-94h-58z"/><glyph unicode="ð" horiz-adv-x="603" d="M41 233q0 99 72 170t173 71q66 0 121-32t82-85q-22 145-129 249l-111-70-22 31 105 65q-56 48-143 98h96q55-33 100-72l88 55 22-30-83-51q147-146 147-355 0-126-77-206.5t-186-80.5q-105 0-180 71t-75 172zm70-1q0-76 54.5-129t132.5-53q79 0 135 56.5t56 134.5q0 74-55 125t-133 51q-79 0-134.5-54t-55.5-131z"/><glyph unicode="ñ" horiz-adv-x="579" d="M73 0v521h62v-118q32 57 92 92t129 35q84 0 119.5-58t35.5-167v-305h-68v291q0 92-27 134.5t-84 42.5q-61 0-116.5-42.5t-74.5-106.5v-319h-68zm63 630q0 12 6 31t28.5 40.5 56.5 21.5q29 0 66.5-21t61.5-21q23 0 37.5 12.5t17 21.5 2.5 15h42q0-7-4.5-20t-14-30.5-30.5-29.5-49-12q-32 0-70.5 20t-57.5 20q-20 0-32-12t-15-21-3-15h-42z"/><glyph unicode="ò" horiz-adv-x="595" d="M39 259q0 111 74.5 191t184.5 80 184.5-80 74.5-191-74-190-185-79q-112 0-185.5 79t-73.5 190zm70-1q0-87 55-147.5t133-60.5 134 61.5 56 148.5-56 148.5-133 61.5q-78 0-133.5-62t-55.5-150zm96 472h71l60-93-44-17z"/><glyph unicode="ó" horiz-adv-x="595" d="M39 259q0 111 74.5 191t184.5 80 184.5-80 74.5-191-74-190-185-79q-112 0-185.5 79t-73.5 190zm70-1q0-87 55-147.5t133-60.5 134 61.5 56 148.5-56 148.5-133 61.5q-78 0-133.5-62t-55.5-150zm150 379l59 93h72l-86-110z"/><glyph unicode="ô" horiz-adv-x="595" d="M39 259q0 111 74.5 191t184.5 80 184.5-80 74.5-191-74-190-185-79q-112 0-185.5 79t-73.5 190zm70-1q0-87 55-147.5t133-60.5 134 61.5 56 148.5-56 148.5-133 61.5q-78 0-133.5-62t-55.5-150zm65 387l98 85h50l99-85-39-21-85 63-85-63z"/><glyph unicode="õ" horiz-adv-x="595" d="M39 259q0 111 74.5 191t184.5 80 184.5-80 74.5-191-74-190-185-79q-112 0-185.5 79t-73.5 190zm70-1q0-87 55-147.5t133-60.5 134 61.5 56 148.5-56 148.5-133 61.5q-78 0-133.5-62t-55.5-150zm31 372q0 12 6 31t28.5 40.5 56.5 21.5q29 0 66.5-21t61.5-21q23 0 37.5 12.5t17 21.5 2.5 15h42q0-7-4.5-20t-14-30.5-30.5-29.5-49-12q-32 0-70.5 20t-57.5 20q-20 0-32-12t-15-21-3-15h-42z"/><glyph unicode="ö" horiz-adv-x="595" d="M39 259q0 111 74.5 191t184.5 80 184.5-80 74.5-191-74-190-185-79q-112 0-185.5 79t-73.5 190zm70-1q0-87 55-147.5t133-60.5 134 61.5 56 148.5-56 148.5-133 61.5q-78 0-133.5-62t-55.5-150zm85 375v94h58v-94h-58zm149 0v94h58v-94h-58z"/><glyph unicode="÷" horiz-adv-x="535" d="M66 254v57h403v-57h-403zm172-180v90h59v-90h-59zm0 325v91h59v-91h-59z"/><glyph unicode="ø" horiz-adv-x="595" d="M39 259q0 111 74.5 191t184.5 80q72 0 134-38l23 31h47l-40-54q95-81 95-210 0-111-74-190t-185-79q-75 0-137 38l-22-29h-46l39 51q-93 80-93 209zm70-1q0-96 63-157l224 338q-47 31-98 31-78 0-133.5-62t-55.5-150zm90-178q44-30 98-30 78 0 134 61.5t56 148.5q0 93-64 157z"/><glyph unicode="ù" horiz-adv-x="594" d="M68 215v306h68v-294q0-177 121-177 61 0 113 39t75 104v328h68v-433q0-28 25-28v-60q-20-3-28-3-23 0-39.5 14t-16.5 35v72q-34-60-92.5-94t-127.5-34q-166 0-166 225zm128 515h71l60-93-44-17z"/><glyph unicode="ú" horiz-adv-x="594" d="M68 215v306h68v-294q0-177 121-177 61 0 113 39t75 104v328h68v-433q0-28 25-28v-60q-20-3-28-3-23 0-39.5 14t-16.5 35v72q-34-60-92.5-94t-127.5-34q-166 0-166 225zm182 422l59 93h72l-86-110z"/><glyph unicode="û" horiz-adv-x="594" d="M68 215v306h68v-294q0-177 121-177 61 0 113 39t75 104v328h68v-433q0-28 25-28v-60q-20-3-28-3-23 0-39.5 14t-16.5 35v72q-34-60-92.5-94t-127.5-34q-166 0-166 225zm98 430l98 85h50l99-85-39-21-85 63-85-63z"/><glyph unicode="ü" horiz-adv-x="594" d="M68 215v306h68v-294q0-177 121-177 61 0 113 39t75 104v328h68v-433q0-28 25-28v-60q-20-3-28-3-23 0-39.5 14t-16.5 35v72q-34-60-92.5-94t-127.5-34q-166 0-166 225zm117 418v94h58v-94h-58zm149 0v94h58v-94h-58z"/><glyph unicode="ý" horiz-adv-x="542" d="M13 521h71l193-458 178 458h65l-271-672q-15-38-41-55.5t-71-17.5q-19 0-34 3v60q12-2 20-2 24 0 38 6 11 5 26 34t53 123zm225 116l59 93h72l-86-110z"/><glyph unicode="þ" horiz-adv-x="602" d="M73-213v923h70v-276q69 98 173 98 74 0 131.5-42t86.5-104 29-129q-2-110-76.5-191.5t-179.5-81.5q-52 0-96.5 26t-67.5 64v-287h-70zm70 385q0-47 54.5-86t108.5-39q80 0 134 63.5t54 147.5q0 85-51 148.5t-130 63.5q-56 0-99.5-34.5t-70.5-87.5v-176z"/><glyph unicode="ÿ" horiz-adv-x="542" d="M13 521h71l193-458 178 458h65l-271-672q-15-38-41-55.5t-71-17.5q-19 0-34 3v60q12-2 20-2 24 0 38 6 11 5 26 34t53 123zm160 112v94h58v-94h-58zm149 0v94h58v-94h-58z"/><glyph unicode="Œ" horiz-adv-x="1160" d="M45 355q0 145 97 252.5t237 107.5q89 0 159-52t105-133v180h463v-62h-393v-255h339v-62h-339v-269h402v-62h-472v180q-35-81-106-133t-158-52q-96 0-173.5 52t-119 134-41.5 174zm70 0q0-119 74.5-208t188.5-89q116 0 189.5 90.5t73.5 207.5q0 118-75.5 207t-187.5 89q-77 0-138.5-44t-93-111-31.5-142z"/><glyph unicode="œ" horiz-adv-x="1036" d="M40 258q0 115 74.5 193.5t183.5 78.5q76 0 136-44.5t87-120.5q28 78 87 121.5t139 43.5q109 0 179.5-73.5t78.5-196.5q0-20-1-24h-445q7-82 64.5-138t135.5-56q54 0 99.5 26t61.5 68l57-16q-25-58-87-94t-134-36q-74 0-137.5 44.5t-96.5 118.5q-33-76-92-119.5t-133-43.5q-109 0-183 77.5t-74 190.5zm69-1q0-88 54.5-147.5t134.5-59.5q79 0 134 60.5t55 148.5-54.5 149.5-133.5 61.5-134.5-62.5-55.5-150.5zm449 25h381q-6 85-61.5 140t-132.5 55-130-55-57-140z"/><glyph unicode="Ÿ" horiz-adv-x="634" d="M8 710h76l233-382 234 382h76l-276-446v-264h-69v266zm205 110v94h58v-94h-58zm149 0v94h58v-94h-58z"/><glyph unicode="ˆ" horiz-adv-x="330" d="M42 645l98 85h50l99-85-39-21-85 63-85-63z"/><glyph unicode="˜" horiz-adv-x="406" d="M44 630q0 12 6 31t28.5 40.5 56.5 21.5q29 0 66.5-21t61.5-21q23 0 37.5 12.5t17 21.5 2.5 15h42q0-7-4.5-20t-14-30.5-30.5-29.5-49-12q-32 0-70.5 20t-57.5 20q-20 0-32-12t-15-21-3-15h-42z"/><glyph horiz-adv-x="458"/><glyph horiz-adv-x="917"/><glyph horiz-adv-x="458"/><glyph horiz-adv-x="917"/><glyph horiz-adv-x="305"/><glyph horiz-adv-x="229"/><glyph horiz-adv-x="152"/><glyph horiz-adv-x="152"/><glyph horiz-adv-x="114"/><glyph horiz-adv-x="183"/><glyph horiz-adv-x="50"/><glyph unicode="‐" horiz-adv-x="423" d="M66 241v63h291v-63h-291z"/><glyph unicode="‑" horiz-adv-x="423" d="M66 241v63h291v-63h-291z"/><glyph unicode="‒" horiz-adv-x="423" d="M66 241v63h291v-63h-291z"/><glyph unicode="–" horiz-adv-x="570" d="M66 241v63h439v-63h-439z"/><glyph unicode="—" horiz-adv-x="901" d="M66 241v63h770v-63h-770z"/><glyph unicode="‘" horiz-adv-x="198" d="M58 610v120h58v-111q0-21 21-21v-52q-33 0-56 16t-23 48z"/><glyph unicode="’" horiz-adv-x="198" d="M53 678v52q33 0 56-16t23-48v-120h-58v111q0 21-21 21z"/><glyph unicode="‚" horiz-adv-x="205" d="M55-15q21 0 21 21v92h58v-102q0-32-23.5-47.5t-55.5-15.5v52z"/><glyph unicode="“" horiz-adv-x="326" d="M58 610v120h58v-111q0-21 21-21v-52q-33 0-56 16t-23 48zm128 0v120h58v-111q0-21 21-21v-52q-33 0-56 16t-23 48z"/><glyph unicode="”" horiz-adv-x="326" d="M53 678v52q33 0 56-16t23-48v-120h-58v111q0 21-21 21zm128 0v52q33 0 56-16t23-48v-120h-58v111q0 21-21 21z"/><glyph unicode="„" horiz-adv-x="322" d="M55-15q21 0 21 21v92h58v-102q0-32-23.5-47.5t-55.5-15.5v52zm117 0q21 0 21 21v92h58v-102q0-32-23.5-47.5t-55.5-15.5v52z"/><glyph unicode="•" horiz-adv-x="355" d="M88 346q0 36 26.5 62.5t63.5 26.5 63-26.5 26-62.5q0-37-26-63.5t-63-26.5-63.5 26.5-26.5 63.5z"/><glyph unicode="…" horiz-adv-x="458" d="M66 0v98h58v-98h-58zm134 0v98h58v-98h-58zm134 0v98h58v-98h-58z"/><glyph horiz-adv-x="183"/><glyph unicode="‹" horiz-adv-x="357" d="M44 239v37l249 178v-59l-193-136 193-134v-59z"/><glyph unicode="›" horiz-adv-x="357" d="M64 66v59l193 134-193 136v59l248-178v-37z"/><glyph horiz-adv-x="229"/><glyph unicode="€" horiz-adv-x="803" d="M34 268l18 43h88q-3 24-3 62h-74l18 43h60q19 123 108 210.5t225 87.5q92 0 160-42t102-113l-56-34q-21 45-57.5 74t-74 40.5-78.5 11.5q-104 0-172-68t-86-167h338l-18-43h-325q0-39 3-62h304l-19-43h-276q25-92 95-151.5t159-59.5q65 0 126 33.5t93 98.5l58-30q-33-76-114-120.5t-167-44.5q-117 0-204.5 79.5t-116.5 194.5h-114z"/><glyph unicode="™" horiz-adv-x="725" d="M59 664v48h238v-48h-95v-240h-48v240h-95zm284-240v286h66l86-187 85 187h67v-286h-48v217l-84-175h-40l-84 175v-217h-48z"/><glyph unicode="" horiz-adv-x="520" d="M0 0v520h520v-520h-520z"/></font>
</defs>
</svg>
